<?xml version="1.0" standalone="no"?>
<!DOCTYPE svg PUBLIC "-//W3C//DTD SVG 1.1//EN" "http://www.w3.org/Graphics/SVG/1.1/DTD/svg11.dtd" >
<!--
2013-9-30: Created.
-->
<svg>
<metadata>
Created by iconfont
</metadata>
<defs>

<font id="iconfont" horiz-adv-x="1024" >
  <font-face
    font-family="iconfont"
    font-weight="500"
    font-stretch="normal"
    units-per-em="1024"
    ascent="896"
    descent="-128"
  />
    <missing-glyph />
    
    <glyph glyph-name="x" unicode="x" horiz-adv-x="1001"
d="M281 543q-27 -1 -53 -1h-83q-18 0 -36.5 -6t-32.5 -18.5t-23 -32t-9 -45.5v-76h912v41q0 16 -0.5 30t-0.5 18q0 13 -5 29t-17 29.5t-31.5 22.5t-49.5 9h-133v-97h-438v97zM955 310v-52q0 -23 0.5 -52t0.5 -58t-10.5 -47.5t-26 -30t-33 -16t-31.5 -4.5q-14 -1 -29.5 -0.5
t-29.5 0.5h-32l-45 128h-439l-44 -128h-29h-34q-20 0 -45 1q-25 0 -41 9.5t-25.5 23t-13.5 29.5t-4 30v167h911zM163 247q-12 0 -21 -8.5t-9 -21.5t9 -21.5t21 -8.5q13 0 22 8.5t9 21.5t-9 21.5t-22 8.5zM316 123q-8 -26 -14 -48q-5 -19 -10.5 -37t-7.5 -25t-3 -15t1 -14.5
t9.5 -10.5t21.5 -4h37h67h81h80h64h36q23 0 34 12t2 38q-5 13 -9.5 30.5t-9.5 34.5q-5 19 -11 39h-368zM336 498v228q0 11 2.5 23t10 21.5t20.5 15.5t34 6h188q31 0 51.5 -14.5t20.5 -52.5v-227h-327z" />
    

    
    <glyph glyph-name="ico-search" unicode="&#58911;" d="M1005.255-18.74599999999998l-192 192c-16.748 16.748-40.464 22.255-61.812 16.559l-74.225 74.225C733.851 330.94000000000005 768.001 417.481 768.001 512c0 212.077-171.923 384-384 384s-384-171.923-384-384 171.923-384 384-384c94.518 0 181.06 34.15 247.961 90.783l74.226-74.226c-5.696-21.348-0.189-45.065 16.558-61.812l192-192c12.497-12.497 28.876-18.745 45.255-18.745s32.758 6.248 45.255 18.745C1030.248-84.26199999999994 1030.248-43.73900000000003 1005.255-18.74599999999998zM506.273 222.47900000000004c-38.689-16.364-79.827-24.661-122.272-24.661s-83.583 8.297-122.272 24.661c-37.404 15.821-71.011 38.484-99.888 67.36-28.876 28.876-51.54 62.484-67.36 99.888-16.364 38.689-24.661 79.827-24.661 122.272s8.297 83.583 24.661 122.272c15.821 37.404 38.484 71.011 67.36 99.888 28.877 28.876 62.484 51.54 99.888 67.36C300.417 817.883 341.555 826.1800000000001 384 826.1800000000001s83.583-8.297 122.272-24.661c37.404-15.821 71.011-38.484 99.888-67.36 28.876-28.876 51.54-62.484 67.36-99.888 16.364-38.689 24.661-79.827 24.661-122.272s-8.297-83.583-24.661-122.272c-15.821-37.404-38.484-71.011-67.36-99.888C577.284 260.96299999999997 543.677 238.29999999999995 506.273 222.47900000000004z"  horiz-adv-x="1024" />

    
    <glyph glyph-name="btredmenu" unicode="&#58881;" d="M0 749.829893C0 830.557414 65.288982 896 145.926531 896L1170.644897 896C1251.237895 896 1316.571429 830.3864590000001 1316.571429 749.829893L1316.571429 18.170108000000027C1316.571429-62.557413999999994 1251.282447-128 1170.644897-128L145.926531-128C65.333533-128 0-62.38645799999995 0 18.170108000000027L0 749.829893ZM339.649183 422.909725C318.52648 405.258405 321.108591 371.35756100000003 339.863715 351.10530900000003L611.93419 65.97898999999995C626.069339 51.16553899999997 649.05743 51.13530100000003 663.218256 65.97566500000005 677.477811 80.91949299999999 677.377664 104.87850100000003 663.215086 119.72069999999997L437.687534 348.64511600000003 953.552973 348.64511600000003C972.985717 348.64511600000003 988.751064 365.269815 988.751064 385.777419 988.751064 406.427999 972.99234 422.909722 953.552973 422.909722L437.687534 422.909722 657.365193 648.38855C671.501645 663.203368 671.314662 687.068396 657.153832 701.90876 642.894277 716.852588 620.128395 716.848293 606.084297 702.130262L339.649183 422.909725Z"  horiz-adv-x="1317" />

    
    <glyph glyph-name="icdel" unicode="&#58919;" d="M768 742.4L768 896 256 896 256 742.4 0 742.4 0 691.2 1024 691.2 1024 742.4 768 742.4 768 742.4ZM307.2 742.4L307.2 844.8 716.8 844.8 716.8 742.4 307.2 742.4 307.2 742.4ZM358.4 486.4L409.6 486.4 409.6 76.79999999999995 358.4 76.79999999999995 358.4 486.4 358.4 486.4ZM614.4 486.4L665.6 486.4 665.6 76.79999999999995 614.4 76.79999999999995 614.4 486.4 614.4 486.4ZM128 588.8L102.4 588.8 102.4-26.01553899999999C102.4-82.25807399999997 148.109875-128 204.495872-128L819.504128-128C875.800883-128 921.6-82.33999400000005 921.6-26.01553899999999L921.6 588.8 896 588.8 870.4 588.8 870.4-26.01553899999999C870.4-54.01282600000002 847.574118-76.79999999999995 819.504128-76.79999999999995L204.495872-76.79999999999995C176.409037-76.79999999999995 153.6-54.00319999999999 153.6-26.01553899999999L153.6 588.8 128 588.8 128 588.8Z"  horiz-adv-x="1024" />

    
    <glyph glyph-name="icdown" unicode="&#58909;" d="M0 665.6C0 679.73847 11.259238 691.2 25.51127 691.2L691.28873 691.2C705.378202 691.2 716.8 679.324979 716.8 665.6 716.8 651.46153 705.540762 640 691.28873 640L25.51127 640C11.421798 640 0 651.8750210000001 0 665.6ZM0 409.6C0 423.73847 11.259238 435.2 25.51127 435.2L691.28873 435.2C705.378202 435.2 716.8 423.324979 716.8 409.6 716.8 395.46153 705.540762 384 691.28873 384L25.51127 384C11.421798 384 0 395.875021 0 409.6ZM0 153.60000000000002C0 167.73847 11.259238 179.20000000000005 25.51127 179.20000000000005L691.28873 179.20000000000005C705.378202 179.20000000000005 716.8 167.32497899999998 716.8 153.60000000000002 716.8 139.46153000000004 705.540762 128 691.28873 128L25.51127 128C11.421798 128 0 139.87502099999995 0 153.60000000000002ZM0-102.39999999999998C0-88.26153 11.499981-76.79999999999995 25.312512-76.79999999999995L998.687488-76.79999999999995C1012.667187-76.79999999999995 1024-88.67502100000002 1024-102.39999999999998 1024-116.53846999999996 1012.500019-128 998.687488-128L25.312512-128C11.332813-128 0-116.12497900000005 0-102.39999999999998ZM921.842022 230.39999999999998L921.842022 870.48873C921.842022 884.578202 909.967002 896 896.242022 896 882.103552 896 870.642022 884.740762 870.642022 870.48873L870.642022 230.39999999999998 798.328218 230.39999999999998C770.017946 230.39999999999998 759.779584 210.76807699999995 775.111322 187.08966399999997L868.118426 43.44939499999998C883.606426 19.529727999999977 908.873574 19.770982000000004 924.205312 43.44939499999998L1017.212467 187.08966399999997C1032.700416 211.00933099999997 1021.857587 230.39999999999998 993.99552 230.39999999999998L921.842022 230.39999999999998Z"  horiz-adv-x="1024" />

    
    <glyph glyph-name="icexpand" unicode="&#58916;" d="M1024 537.6L1024.25175 537.6 1024 742.4C1024 835.163648 962.921216 896 870.4 896L665.85175 896 665.85175 844.8 870.4 844.8C884.750029 844.015155 897.734451 841.48439 909.264026 837.2916740000001L268.829491 168.51635199999998 305.03337 132.31247399999995 951.281152 807.158374C964.00128 790.577562 971.358413 768.818125 972.8 742.4L972.953702 617.384806C972.852224 616.481946 972.8 615.564851 972.8 614.636083L972.8 511.763917C972.8 497.446554 984.26153 486.4 998.4 486.4 1012.124979 486.4 1024 497.755802 1024 511.763917L1024 537.6 1024 537.6 1024 537.6 1024 537.6ZM307.2 896L102.4 896C46.118861 896 0 850.364979 0 793.6L0-25.600000000000023C0-82.01154599999995 45.635021-128 102.4-128L921.6-128C978.011546-128 1024-81.95353599999999 1024-25.600000000000023L1024 179.20000000000005 972.8 179.20000000000005 972.8-25.600000000000023C972.8-53.628826000000004 949.78089-76.79999999999995 921.6-76.79999999999995L102.4-76.79999999999995C74.061261-76.79999999999995 51.2-53.884006 51.2-25.600000000000023L51.2 793.6C51.2 821.943091 74.251469 844.8 102.4 844.8L307.2 844.8 307.2 896 307.2 896 307.2 896 307.2 896ZM742.636083 844.8C756.953446 844.8 768 856.26153 768 870.4 768 884.124979 756.644198 896 742.636083 896L639.763917 896C625.446554 896 614.4 884.53847 614.4 870.4 614.4 856.675021 625.755802 844.8 639.763917 844.8L742.636083 844.8 742.636083 844.8 742.636083 844.8 742.636083 844.8Z"  horiz-adv-x="1025" />

    
    <glyph glyph-name="ic2left" unicode="&#58907;" d="M51.2 230.145485C51.2 60.404582000000005 188.496538-76.79999999999995 358.145485-76.79999999999995L665.854515-76.79999999999995C835.595418-76.79999999999995 972.8 60.49653799999999 972.8 230.145485L972.8 537.854515C972.8 707.595418 835.503462 844.8 665.854515 844.8L358.145485 844.8C188.404582 844.8 51.2 707.503462 51.2 537.854515L51.2 230.145485ZM358.145485 896L665.854515 896C863.652813 896 1024 736 1024 537.854515L1024 230.145485C1024 32.34718699999996 864-128 665.854515-128L358.145485-128C160.347187-128 0 32 0 230.145485L0 537.854515C0 735.652813 160 896 358.145485 896ZM432.883558 363.776154C421.729024 374.93068800000003 421.73481 393.075098 432.883558 404.223846L650.557798 621.8980859999999C660.555213 631.895501 660.555213 648.104499 650.557798 658.101914 640.560384 668.099379 624.351334 668.099379 614.35392 658.101914L396.67968 440.427725C365.541274 409.289267 365.525146 358.72681 396.67968 327.572275L614.35392 109.89808600000003C624.351334 99.900621 640.560384 99.900621 650.557798 109.89808600000003 660.555213 119.89550099999997 660.555213 136.10449900000003 650.557798 146.10191399999997L432.883558 363.776154Z"  horiz-adv-x="1024" />

    
    <glyph glyph-name="btmenu" unicode="&#58880;" d="M0 749.829893C0 830.557414 65.795098 896 147.057744 896L1179.719665 896C1260.937413 896 1326.777408 830.3864590000001 1326.777408 749.829893L1326.777408 18.17010700000003C1326.777408-62.557413999999994 1260.98231-128 1179.719665-128L147.057744-128C65.839995-128 0-62.38645799999995 0 18.17010700000003L0 749.829893 0 749.829893ZM368.305951 566.8571420000001L958.471455 566.8571420000001C978.684593 566.8571420000001 995.083057 583.23073 995.083057 603.428572 995.083057 623.767229 978.691484 640 958.471455 640L368.305951 640C348.092815 640 331.694351 623.6264140000001 331.694351 603.428572 331.694351 583.089912 348.085924 566.8571420000001 368.305951 566.8571420000001L368.305951 566.8571420000001ZM368.305951 347.42857200000003L958.471455 347.42857200000003C978.684593 347.42857200000003 995.083057 363.80216099999996 995.083057 384 995.083057 404.33866 978.691484 420.571428 958.471455 420.571428L368.305951 420.571428C348.092815 420.571428 331.694351 404.197839 331.694351 384 331.694351 363.66134 348.085924 347.42857200000003 368.305951 347.42857200000003L368.305951 347.42857200000003ZM368.305951 128L958.471455 128C978.684593 128 995.083057 144.37358800000004 995.083057 164.57142799999997 995.083057 184.91008799999997 978.691484 201.14285800000005 958.471455 201.14285800000005L368.305951 201.14285800000005C348.092815 201.14285800000005 331.694351 184.76927 331.694351 164.57142799999997 331.694351 144.23277099999996 348.085924 128 368.305951 128L368.305951 128Z"  horiz-adv-x="1332" />

    
    <glyph glyph-name="next3" unicode="&#58882;" d="M46.5671 865.552307C46.5671 895.316149 63.641241 902.755332 85.09139 881.788812L456.062041 519.1822930000001 456.062041 865.463366C456.062041 895.276328 473.378115 902.518781 494.619575 881.756157L965.835013 421.163102C987.129754 400.3484 987.076473 366.54905900000006 965.835013 345.786481L494.619575-114.80554700000005C473.324838-135.62020400000006 456.062041-128.3570850000001 456.062041-98.512834L456.062041 247.76720699999998 85.09139-114.83823199999995C63.815012-135.63483599999995 46.5671-128.60192299999994 46.5671-98.60161500000004L46.5671 865.552307Z"  horiz-adv-x="1024" />

    
    <glyph glyph-name="theprevious3" unicode="&#58883;" d="M978.650624 863.061764C978.650624 892.864765 961.476899 899.920603 940.32768 878.85692L578.971198 518.961898 578.971198 863.340328C578.971198 892.989482 561.770757 899.89388 540.910996 879.118345L81.8456 421.906529C60.82553 400.971331 60.985839 366.869011 81.8456 346.093476L540.910996-111.11834099999999C561.931065-132.053539 578.971198-124.72353399999997 578.971198-95.34048499999994L578.971198 249.036921 940.32768-110.85703000000001C961.492857-131.9365439999999 978.650624-124.75594899999999 978.650624-95.06176000000005L978.650624 863.061764Z"  horiz-adv-x="1024" />

    
    <glyph glyph-name="theprevious2" unicode="&#58885;" d="M272.880575 345.880077C251.827569 366.933129 251.891689 401.130992 272.880575 422.119925L729.664582 878.904948C750.717588 899.958 767.784421 892.755952 767.784421 863.061764L767.784421-95.06176C767.784421-124.864763 750.653467-131.893876 729.664582-110.904945L272.880575 345.880077Z"  horiz-adv-x="1024" />

    
    <glyph glyph-name="jinduwancheng" unicode="&#58890;" d="M510.935549 890.385326C231.853567 890.385326 5.614674 664.12622 5.614674 385.064451 5.614674 106.00268100000005 231.853567-120.25642300000004 510.935549-120.25642300000004 790.017531-120.25642300000004 1016.256423 106.00268100000005 1016.256423 385.064451 1016.256423 664.12622 790.017531 890.385326 510.935549 890.385326L510.935549 890.385326ZM463.911511 216.665708L422.74695 180.27137700000003 385.448655 220.65437399999996 217.008363 403.116759 299.541861 479.276476 430.684979 337.216179 754.466522 623.6197 828.87895 539.5219529999999 463.911511 216.665708Z"  horiz-adv-x="1024" />

    
    <glyph glyph-name="jinxingzhong" unicode="&#58891;" d="M510.935549 890.385326C231.853567 890.385326 5.614674 664.12622 5.614674 385.064451 5.614674 106.00268100000005 231.853567-120.25642300000004 510.935549-120.25642300000004 790.017531-120.25642300000004 1016.256423 106.00268100000005 1016.256423 385.064451 1016.256423 664.12622 790.017531 890.385326 510.935549 890.385326L510.935549 890.385326Z"  horiz-adv-x="1024" />

    
    <glyph glyph-name="pulldown" unicode="&#58893;" d="M864.159 140.14999999999998c54.408-53.817 142.573-53.865 197.03 0l490.559 485.228c54.408 53.817 35.853 97.445-40.913 97.445h-1096.325c-77.002 0-95.369-43.578-40.913-97.445l490.56-485.228z"  horiz-adv-x="1844" />

    
    <glyph glyph-name="icme" unicode="&#58894;" d="M512-128C794.769792-128 1024 101.23020799999995 1024 384 1024 666.769792 794.769792 896 512 896 229.230208 896 0 666.769792 0 384 0 101.23020799999995 229.230208-128 512-128L512-128ZM213.333333 213.33333200000004C213.333333 260.461632 251.607899 298.66666799999996 298.916636 298.66666799999996L725.083361 298.66666799999996C772.349716 298.66666799999996 810.666668 260.790203 810.666668 213.33333200000004L810.666668 213.33333200000004C810.666668 166.20503599999995 772.392102 128 725.083361 128L298.916636 128C251.650283 128 213.333333 165.87646199999995 213.333333 213.33333200000004L213.333333 213.33333200000004 213.333333 213.33333200000004ZM341.333332 554.6666680000001C341.333332 648.923264 417.743404 725.333333 512 725.333333 606.256596 725.333333 682.666668 648.923264 682.666668 554.6666680000001 682.666668 460.410068 606.256596 384 512 384 417.743404 384 341.333332 460.410068 341.333332 554.6666680000001L341.333332 554.6666680000001Z"  horiz-adv-x="1024" />

    
    <glyph glyph-name="guanbiwangye" unicode="&#58896;" d="M23.272727 372.87007700000004C23.272727 102.36744599999997 242.057263-116.96542299999999 512-116.96542299999999 781.942737-116.96542299999999 1000.727273 102.36744599999997 1000.727273 372.87007700000004 1000.727273 520.891446 934.7581 658.211945 823.085373 750.6760449999999 803.285295 767.070345 773.943955 764.309418 757.549654 744.509341 741.155351 724.709264 743.916279 695.367923 763.716357 678.973622 854.242611 604.01863 907.636364 492.874945 907.636364 372.87007700000004 907.636364 153.72804399999995 730.477812-23.87451299999998 512-23.87451299999998 293.522188-23.87451299999998 116.363636 153.72804399999995 116.363636 372.87007700000004 116.363636 493.689081 170.490367 605.509851 262.070472 680.4443679999999 281.965514 696.723292 284.896961 726.048088 268.618035 745.943132 252.339112 765.838176 223.014316 768.769621 203.119272 752.490697 90.146257 660.05164 23.272727 521.897174 23.272727 372.87007700000004ZM465.454545 395.082252C465.454545 369.375907 486.293655 348.536797 512 348.536797 537.706345 348.536797 558.545455 369.375907 558.545455 395.082252L558.545455 838.372294C558.545455 864.078639 537.706345 884.917749 512 884.917749 486.293655 884.917749 465.454545 864.078639 465.454545 838.372294L465.454545 395.082252Z"  horiz-adv-x="1024" />

    
    <glyph glyph-name="shangchuantupian" unicode="&#58897;" d="M934.4 486.4C983.884714 486.4 1024 526.5152860000001 1024 576 1024 625.4847139999999 983.884714 665.6 934.4 665.6 884.915286 665.6 844.8 625.4847139999999 844.8 576 844.8 526.5152860000001 884.915286 486.4 934.4 486.4ZM128 25.58004500000004C128 11.505407999999989 139.522036 0 153.814062 0L1100.585936 0C1114.930829 0 1126.4 11.456083000000035 1126.4 25.58004500000004L1126.4 742.419956C1126.4 756.494591 1114.877965 768 1100.585936 768L153.814062 768C139.469172 768 128 756.543918 128 742.419956L128 25.58004500000004 128 25.58004500000004 128 25.58004500000004ZM153.814062 896L1100.585936 896C1185.535098 896 1254.4 827.222428 1254.4 742.419956L1254.4 25.58004500000004C1254.4-59.23987199999999 1185.619846-128 1100.585936-128L153.814062-128C68.864901-128 0-59.222429000000034 0 25.58004500000004L0 742.419956C0 827.239872 68.780155 896 153.814062 896L153.814062 896 153.814062 896ZM128 160.00000999999997C144 192.00000999999997 128 176.00002600000005 192 272.00001 256 367.999994 318.644032 419.588906 390.28265 395.709366 462.044992 371.788586 520.369139 323.58189400000003 566.792029 257.112758 591.621821 221.56100800000002 611.398669 183.10602900000004 626.452269 144.658317 631.698989 131.25791000000004 635.955709 118.89530200000002 639.284771 107.93921599999999 641.173024 101.72489299999995 642.275434 97.62340200000006 642.661629 96.00138200000004 642.661629 96.00138200000004 658.024746 31.476287999999954 665.706307-0.6654399999999896 688-0.5446080000000393 709.909402-0.6654399999999896 709.909402-0.6654399999999896 709.909402-0.6654399999999896 718.088557 12.207685999999967 722.178138 18.644250000000056 734.423946 37.917853000000036 758.915562 76.46506599999998 758.915562 76.46506599999998 760.413165 78.81843800000001 764.450861 84.47121600000003 770.854496 92.29787799999997 782.004752 105.925971 795.225312 119.64542100000006 810.261533 132.36837400000002 851.57385 167.32494999999994 897.710544 187.62509799999998 948.121229 187.62509799999998 997.95681 187.62509799999998 1046.683574 165.13582099999996 1092.070579 126.23267499999997 1104.491568 115.58611199999996 1116.296998 103.71111699999994 1126.626221 92.29789100000005 1126.626221 107.93921899999998 1126.626221 120.54297899999995 1126.626205 260.006134 1072.367872 295.13506600000005 1012.722205 315.625098 948.121229 315.625098 864.13191 315.625098 790.268605 283.12524499999995 727.580925 230.081818 690.839555 198.99296600000002 725.270733 226.74548500000003 725.270733 226.74548500000003 725.270733 226.74548500000003 686.058326 309.89128000000005 671.73191 330.40410199999997 610.599242 417.93497 530.997462 483.728278 430.759805 517.1408289999999 285.775585 565.4689020000001 215.613303 550.8895709999999 128 399.999994 128 394.962387 128 175.32520599999998 128 160.00000999999997Z"  horiz-adv-x="1280" />

    
    <glyph glyph-name="xiaoyanchenggong" unicode="&#58899;" d="M481.392896-124.16446199999996L8.604782 384.72331 198.231296 558.638738 499.642039 234.20993799999997 1243.731639 888.213138 1414.721353 696.1655949999999Z"  horiz-adv-x="1427" />

    
    <glyph glyph-name="develop" unicode="&#58901;" d="M1034.766 476.726l526.059-396.26c38.962-29.526 95.344-22.908 125.898 14.725 30.562 37.631 23.772 92.021-15.188 121.619l-643.766 488.029-609.97-489.543c-38.085-30.615-43.296-85.168-11.647-121.971 31.648-36.783 88.164-41.867 126.251-11.325l502.362 394.724z"  horiz-adv-x="2102" />

    
    <glyph glyph-name="wodecaidan" unicode="&#58902;" d="M51.2 567.913137C51.2 511.0544 97.003889 465.317647 153.795489 465.317647L328.086863 465.317647C384.9456 465.317647 430.682353 511.121536 430.682353 567.913137L430.682353 742.204511C430.682353 799.063248 384.878464 844.8 328.086863 844.8L153.795489 844.8C96.936752 844.8 51.2 798.996111 51.2 742.204511L51.2 567.913137ZM153.795489 896L328.086863 896C413.025766 896 481.882353 827.469765 481.882353 742.204511L481.882353 567.913137C481.882353 482.974234 413.352118 414.117647 328.086863 414.117647L153.795489 414.117647C68.856586 414.117647 0 482.647882 0 567.913137L0 742.204511C0 827.143414 68.530235 896 153.795489 896ZM51.2 25.795488999999975C51.2-31.063247000000047 97.003889-76.79999999999995 153.795489-76.79999999999995L328.086863-76.79999999999995C384.9456-76.79999999999995 430.682353-30.99611100000004 430.682353 25.795488999999975L430.682353 200.086863C430.682353 256.9456 384.878464 302.68235300000003 328.086863 302.68235300000003L153.795489 302.68235300000003C96.936752 302.68235300000003 51.2 256.878464 51.2 200.086863L51.2 25.795488999999975ZM153.795489 353.88235299999997L328.086863 353.88235299999997C413.025766 353.88235299999997 481.882353 285.352118 481.882353 200.086863L481.882353 25.795488999999975C481.882353-59.14341400000001 413.352118-128 328.086863-128L153.795489-128C68.856586-128 0-59.46976500000005 0 25.795488999999975L0 200.086863C0 285.025766 68.530235 353.88235299999997 153.795489 353.88235299999997ZM593.317647 567.913137C593.317647 511.0544 639.121536 465.317647 695.913137 465.317647L870.204511 465.317647C927.063247 465.317647 972.8 511.121536 972.8 567.913137L972.8 742.204511C972.8 799.063248 926.996111 844.8 870.204511 844.8L695.913137 844.8C639.0544 844.8 593.317647 798.996111 593.317647 742.204511L593.317647 567.913137ZM695.913137 896L870.204511 896C955.143414 896 1024 827.469765 1024 742.204511L1024 567.913137C1024 482.974234 955.469765 414.117647 870.204511 414.117647L695.913137 414.117647C610.974234 414.117647 542.117647 482.647882 542.117647 567.913137L542.117647 742.204511C542.117647 827.143414 610.647882 896 695.913137 896ZM593.317647 25.795488999999975C593.317647-31.063247000000047 639.121536-76.79999999999995 695.913137-76.79999999999995L870.204511-76.79999999999995C927.063247-76.79999999999995 972.8-30.99611100000004 972.8 25.795488999999975L972.8 200.086863C972.8 256.9456 926.996111 302.68235300000003 870.204511 302.68235300000003L695.913137 302.68235300000003C639.0544 302.68235300000003 593.317647 256.878464 593.317647 200.086863L593.317647 25.795488999999975ZM695.913137 353.88235299999997L870.204511 353.88235299999997C955.143414 353.88235299999997 1024 285.352118 1024 200.086863L1024 25.795488999999975C1024-59.14341400000001 955.469765-128 870.204511-128L695.913137-128C610.974234-128 542.117647-59.46976500000005 542.117647 25.795488999999975L542.117647 200.086863C542.117647 285.025766 610.647882 353.88235299999997 695.913137 353.88235299999997Z"  horiz-adv-x="1024" />

    
    <glyph glyph-name="xitongguanli" unicode="&#58903;" d="M51.2 230.381435C51.2 202.06157099999996 74.080648 179.20000000000005 102.400654 179.20000000000005L921.599347 179.20000000000005C949.796764 179.20000000000005 972.8 202.17688799999996 972.8 230.381435L972.8 793.618565C972.8 821.93843 949.919352 844.8 921.599347 844.8L102.400654 844.8C74.203235 844.8 51.2 821.823112 51.2 793.618565L51.2 230.381435 51.2 230.381435 51.2 230.381435ZM102.400654 896L921.599347 896C978.153667 896 1024 850.258057 1024 793.618565L1024 230.381435C1024 173.83772899999997 978.011525 128 921.599347 128L102.400654 128C45.846334 128 0 173.741944 0 230.381435L0 793.618565C0 850.16227 45.988474 896 102.400654 896L102.400654 896 102.400654 896ZM486.4 128.04531199999997L486.4-78.69538599999998 537.6-76.45781199999999 537.6-50.23906299999999 537.6 128.260938 486.4 128.04531199999997ZM166.4 281.39015900000004C166.4 288.75172599999996 160.759792 294.4 153.552734 294.4L870.447265 294.4C863.401416 294.4 857.6 288.63739599999997 857.6 281.39015900000004L857.6 742.60984C857.6 735.248274 863.240207 729.6 870.447265 729.6L153.552734 729.6C160.598584 729.6 166.4 735.362605 166.4 742.60984L166.4 281.39015900000004ZM153.552734 768L870.447265 768C884.559652 768 896 756.344177 896 742.60984L896 281.39015900000004C896 267.367562 884.547451 256 870.447265 256L153.552734 256C139.440349 256 128 267.65582300000005 128 281.39015900000004L128 742.60984C128 756.632438 139.452549 768 153.552734 768ZM844.8-128C858.938488-128 870.4-116.53848800000003 870.4-102.39999999999998 870.4-88.26151200000004 858.938488-76.79999999999995 844.8-76.79999999999995L179.2-76.79999999999995C165.06151-76.79999999999995 153.6-88.26151200000004 153.6-102.39999999999998 153.6-116.53848800000003 165.06151-128 179.2-128L844.8-128Z"  horiz-adv-x="1024" />

    
    <glyph glyph-name="gonggongxinxi" unicode="&#58905;" d="M153.718892 142.468252L617.049999 142.468252 648.536159 142.468252 662.742349 112.76335099999994C662.742349 112.76335099999994 723.4-14.774986000000013 736.342853-41.51103999999998 750.157908 6.976767999999993 777.788014 103.95238400000005 777.788014 103.95238400000005L788.761882 142.468252 826.8125 142.468252 870.574797 142.468252C926.84631 142.468252 972.8 191.07067900000004 972.8 250.812406L972.8 733.529981C972.8 793.374555 926.954435 841.874135 870.419955 841.874135L153.580044 841.874135C97.055641 841.874135 51.2 793.367947 51.2 733.529981L51.2 250.812406C51.2 190.97877800000003 97.097371 142.468252 153.718892 142.468252ZM870.419955 896C955.239872 896 1024 823.258508 1024 733.529981L1024 250.812406C1024 161.08269099999995 955.033382 88.34238700000003 870.574797 88.34238700000003L826.8125 88.34238700000003 777.995008-82.99630300000001C761.705364-140.16937699999994 727.816335-143.26811900000007 702.340483-89.99855400000001L617.049999 88.34238700000003 153.718892 88.34238700000003C68.822292 88.34238700000003 0 161.08387800000003 0 250.812406L0 733.529981C0 823.259695 68.777573 896 153.580044 896L870.419955 896ZM844.8 625.370673C858.938488 625.370673 870.4 637.48716 870.4 652.433605 870.4 667.38005 858.938488 679.496538 844.8 679.496538L179.2 679.496538C165.06151 679.496538 153.6 667.38005 153.6 652.433605 153.6 637.48716 165.06151 625.370673 179.2 625.370673L844.8 625.370673 844.8 625.370673ZM537.6 462.993075C551.738488 462.993075 563.2 475.109563 563.2 490.056008 563.2 505.002452 551.738488 517.1189400000001 537.6 517.1189400000001L179.2 517.1189400000001C165.06151 517.1189400000001 153.6 505.002452 153.6 490.056008 153.6 475.109563 165.06151 462.993075 179.2 462.993075L537.6 462.993075 537.6 462.993075Z"  horiz-adv-x="1024" />

    
    <glyph glyph-name="ic2right" unicode="&#58908;" d="M972.8 230.145485C972.8 60.404582000000005 835.503462-76.79999999999995 665.854515-76.79999999999995L358.145485-76.79999999999995C188.404582-76.79999999999995 51.2 60.49653799999999 51.2 230.145485L51.2 537.854515C51.2 707.595418 188.496538 844.8 358.145485 844.8L665.854515 844.8C835.595418 844.8 972.8 707.503462 972.8 537.854515L972.8 230.145485 972.8 230.145485ZM665.854515 896L358.145485 896C160.347187 896 0 736 0 537.854515L0 230.145485C0 32.34718699999996 160-128 358.145485-128L665.854515-128C863.652813-128 1024 32 1024 230.145485L1024 537.854515C1024 735.652813 864 896 665.854515 896L665.854515 896ZM591.116442 363.776154C602.270976 374.93068800000003 602.26519 393.075098 591.116442 404.223846L373.442202 621.8980859999999C363.444787 631.895501 363.444787 648.104499 373.442202 658.101914 383.439616 668.099379 399.648666 668.099379 409.64608 658.101914L627.32032 440.427725C658.458726 409.289267 658.474854 358.72681 627.32032 327.572275L409.64608 109.89808600000003C399.648666 99.900621 383.439616 99.900621 373.442202 109.89808600000003 363.444787 119.89550099999997 363.444787 136.10449900000003 373.442202 146.10191399999997L591.116442 363.776154 591.116442 363.776154Z"  horiz-adv-x="1024" />

    
    <glyph glyph-name="icup1" unicode="&#58912;" d="M0.006528 665.579962C0.006528 679.718076 11.209468 691.179315 25.390236 691.179315L687.838644 691.179315C701.857663 691.179315 713.222351 679.3045950000001 713.222351 665.579962 713.222351 651.4418479999999 702.019409 639.9806080000001 687.838644 639.9806080000001L25.390236 639.9806080000001C11.371215 639.9806080000001 0.006528 651.855329 0.006528 665.579962L0.006528 665.579962ZM0.006528 409.586426C0.006528 423.724539 11.209468 435.185779 25.390236 435.185779L687.838644 435.185779C701.857663 435.185779 713.222351 423.311058 713.222351 409.586426 713.222351 395.448312 702.019409 383.987072 687.838644 383.987072L25.390236 383.987072C11.371215 383.987072 0.006528 395.861793 0.006528 409.586426L0.006528 409.586426ZM0.006528 153.59289C0.006528 167.731003 11.209468 179.19224299999996 25.390236 179.19224299999996L687.838644 179.19224299999996C701.857663 179.19224299999996 713.222351 167.31752200000005 713.222351 153.59289 713.222351 139.45477600000004 702.019409 127.99353599999995 687.838644 127.99353599999995L25.390236 127.99353599999995C11.371215 127.99353599999995 0.006528 139.86825699999997 0.006528 153.59289L0.006528 153.59289ZM0.006528-102.40064600000005C0.006528-88.26253299999996 11.449006-76.80129299999999 25.192471-76.80129299999999L993.700331-76.80129299999999C1007.610129-76.80129299999999 1018.886273-88.67601400000001 1018.886273-102.40064600000005 1018.886273-116.53876000000002 1007.443795-128 993.700331-128L25.192471-128C11.282674-128 0.006528-116.12527899999998 0.006528-102.40064600000005L0.006528-102.40064600000005ZM917.239111 691.179315L917.239111 51.106749000000036C917.239111 37.01763100000005 905.423469 25.596122000000037 891.767118 25.596122000000037 877.699342 25.596122000000037 866.295126 36.855076000000054 866.295126 51.106749000000036L866.295126 691.179315 794.342906 691.179315C766.174193 691.179315 755.987025 710.810743 771.242101 734.488558L863.784146 878.1252C879.194701 902.044263 904.335508 901.803015 919.590584 878.1252L1012.13268 734.488558C1027.543184 710.569495 1016.754573 691.179315 989.031824 691.179315L917.239111 691.179315 917.239111 691.179315Z"  horiz-adv-x="1024" />

    
    <glyph glyph-name="qingchu" unicode="&#58913;" d="M394.323694-55.88556500000004C402.550024-65.76951299999996 426.332444-76.79999999999995 439.501576-76.79999999999995L917.255526-76.79999999999995C946.881126-76.79999999999995 970.857649-53.92779299999995 970.857649-26.07128799999998L970.857649 794.071289C970.857649 821.782115 946.808407 844.8 917.255526 844.8L439.501576 844.8C426.478177 844.8 402.654359 833.761195 394.395412 823.79402L69.005281 431.102264C47.898817 405.630272 47.868727 360.380541 68.933562 335.07111399999997L394.323694-55.88556500000004ZM27.467291 463.043507L352.857423 855.735266C371.283822 877.972864 410.444495 896 439.501576 896L917.255526 896C976.212406 896 1024.0064 850.011526 1024.0064 794.071289L1024.0064-26.07128799999998C1024.0064-82.364961 976.068864-128 917.255526-128L439.501576-128C410.07573-128 371.088632-109.817994 352.857423-87.91317200000003L27.467291 303.043507C-9.224266 347.128463-9.070113 418.948941 27.467291 463.043507ZM652.06338 361.47747100000004L792.448292 226.239916C802.826232 216.24249299999997 802.826232 200.03346899999997 792.448292 190.03604700000005 782.070351 180.03862500000002 765.244388 180.03862500000002 754.866447 190.03604700000005L614.481539 325.273605 474.096627 190.03604700000005C463.718687 180.03862500000002 446.892723 180.03862500000002 436.514785 190.03604700000005 426.136845 200.03346899999997 426.136845 216.24249299999997 436.514785 226.239916L576.899694 361.47747100000004 424.1631 508.613827C413.78516 518.611249 413.78516 534.8202699999999 424.1631 544.8176920000001 434.541038 554.815114 451.367004 554.815114 461.744942 544.8176920000001L614.481539 397.681339 767.218132 544.8176920000001C777.596073 554.815114 794.422036 554.815114 804.799977 544.8176920000001 815.177915 534.8202699999999 815.177915 518.611249 804.799977 508.613827L652.06338 361.47747100000004 652.06338 361.47747100000004Z"  horiz-adv-x="1025" />

    
    <glyph glyph-name="icexpand1" unicode="&#58910;" d="M1018.905472 537.6 1019.155971 537.6 1018.905472 742.4C1018.905472 835.163648 958.130563 896 866.069652 896L662.539054 896 662.539054 844.8 866.069652 844.8C880.348288 844.015155 893.268111 841.48439 904.740324 837.291674L267.492032 168.516352 303.515791 132.312474 946.548411 807.158374C959.205253 790.577562 966.525783 768.818125 967.9602 742.4L968.113137 617.384806C968.012163 616.481946 967.9602 615.564851 967.9602 614.636083L967.9602 511.763917C967.9602 497.446554 979.364705 486.4 993.432835 486.4 1007.089531 486.4 1018.905472 497.755802 1018.905472 511.763917L1018.905472 537.6 1018.905472 537.6 1018.905472 537.6 1018.905472 537.6 1018.905472 537.6ZM305.671642 896 101.890547 896C45.889414 896 0 850.364979 0 793.6L0-25.6C0-82.011546 45.407981-128 101.890547-128L917.014925-128C973.145818-128 1018.905472-81.953536 1018.905472-25.6L1018.905472 179.2 967.9602 179.2 967.9602-25.6C967.9602-53.628826 945.055611-76.8 917.014925-76.8L101.890547-76.8C73.692797-76.8 50.945274-53.884006 50.945274-25.6L50.945274 793.6C50.945274 821.943091 73.882059 844.8 101.890547 844.8L305.671642 844.8 305.671642 896 305.671642 896 305.671642 896 305.671642 896 305.671642 896Z"  horiz-adv-x="1024" />

    
    <glyph glyph-name="icmoreoption" unicode="&#58917;" d="M1096.689 189.55100000000004c-48.768-50.297-127.452-50.354-176.274 0l-484.628 499.83c-16.235 16.743-42.555 16.743-58.789 0-16.235-16.744-16.235-43.89 0-60.633l484.628-499.829c81.309-83.86 212.635-83.766 293.855 0l484.628 499.829c16.235 16.744 16.235 43.89 0 60.633s-42.555 16.743-58.789 0l-484.627-499.83z"  horiz-adv-x="2048" />

    
    <glyph glyph-name="icedit" unicode="&#58920;" d="M871.073569 0.2126029999999446C871.073569-41.56821500000001 831.758072-76.75294699999995 782.044065-76.75294699999995L140.951919-76.75300100000004C91.1456-76.75300100000004 51.922414-41.75570400000004 51.922414-0.13411599999994905L51.081782 767.750534C51.081782 809.402331 90.484573 844.369419 140.951919 844.369419L689.964703 844.7274C704.06698 844.7274 715.499195 856.199395 715.499195 870.350875 715.499195 884.502355 704.06698 895.974401 689.964703 895.974401L140.951919 895.61647C63.582001 895.61647 0.0128 839.203417 0.0128 767.750534L0.853431-0.13411599999994905C0.853431-71.487212 64.19019-128 140.951919-128L782.044065-128C858.742871-128 922.142554-71.26147600000002 922.142554 0.2126029999999446L922.142554 253.46051799999998 922.142554 513.683441C922.142554 527.834918 910.71039 539.306964 896.608061 539.306964 882.505733 539.306964 871.073569 527.834918 871.073569 513.683441L871.073569 0.2126029999999446 871.073569 0.2126029999999446ZM1015.626655 844.555629C1026.774049 856.318381 1026.774049 875.389597 1015.626655 887.152349 1004.47926 898.915102 986.405752 898.915102 975.258307 887.152349L622.757985 537.803412C611.610591 526.04066 611.610591 506.969444 622.757985 495.206692 633.90538 483.44394 651.978888 483.44394 663.126333 495.206692L1015.626655 844.555629 1015.626655 844.555629ZM463.983178 435.18592C478.121295 435.18592 489.582538 446.647163 489.582538 460.78528 489.582538 474.923397 478.121295 486.38464 463.983178 486.38464L225.830437 486.38464C211.69232 486.38464 200.231077 474.923397 200.231077 460.78528 200.231077 446.647163 211.69232 435.18592 225.830437 435.18592L463.983178 435.18592 463.983178 435.18592ZM687.914604 179.19232C702.052772 179.19232 713.513964 190.65356299999996 713.513964 204.79168000000004 713.513964 218.929797 702.052772 230.39103999999998 687.914604 230.39103999999998L456.872545 230.39103999999998 225.830437 230.39103999999998C211.69232 230.39103999999998 200.231077 218.929797 200.231077 204.79168000000004 200.231077 190.65356299999996 211.69232 179.19232 225.830437 179.19232L687.914604 179.19232 687.914604 179.19232Z"  horiz-adv-x="1024" />

    
    <glyph glyph-name="theshelves" unicode="&#58921;" d="M528.864279 406.800384C528.320433 407.400448 527.726963 407.950336 527.129444 408.450048 526.836759 408.705024 526.539011 408.94976 526.239237 409.100288L526.039726 409.299968C525.794642 409.449472 525.547533 409.700352 525.250796 409.849856 524.857851 410.099712 524.512504 410.349568 524.115507 410.6496L523.969672 410.699776C523.770161 410.800128 523.57065 410.999808 523.27594 411.10016 522.779694 411.350016 522.333071 411.554816 521.889487 411.800576 521.642378 411.95008 521.444892 412.050432 521.196769 412.105728 520.69951 412.350464 520.207316 412.500992 519.615872 412.700672 519.416358 412.806144 519.215836 412.850176 519.01835 412.950528 518.473492 413.105152 517.93471 413.300736 517.235914 413.400064L516.792333 413.505536C513.676109 414.155776 510.414049 414.155776 507.251238 413.505536 507.099328 413.505536 506.954504 413.45536 506.807657 413.400064 506.163548 413.299712 505.56704 413.105152 505.073833 412.950528 504.776084 412.850176 504.629238 412.80512 504.382126 412.700672 503.88588 412.500992 503.340009 412.350464 502.801229 412.105728 502.602729 412.050432 502.402207 411.951104 502.204721 411.800576 501.712525 411.600896 501.214254 411.35104 500.723072 411.10016 500.523558 410.950656 500.324047 410.800128 500.078963 410.699776 499.635379 410.399744 499.141158 410.149888 498.796826 409.849856 498.544653 409.700352 498.252979 409.504768 498.054482 409.350144L497.95422 409.20064C497.555197 409.00096 497.262513 408.706048 496.864504 408.451072 496.57182 408.100864 496.172797 407.805952 495.828465 407.450624 495.582367 407.200768 495.382856 407.05536 495.18537 406.805504L333.287593 239.699968C323.993613 230.099968 323.993613 214.50035200000002 333.287593 204.94950400000005 337.738616 200.29952000000003 343.774592 197.74976000000004 350.099197 197.74976000000004 356.428867 197.74976000000004 362.466867 200.29952000000003 366.916879 204.94950400000005L488.215642 330.09971199999995 488.215642 68.74931200000003C488.165005 62.19980799999996 490.686746 56.04966400000001 495.184356 51.39967999999999 499.68703 46.74969599999997 505.666291 44.19993599999998 511.994947 44.149760000000015 518.424881 44.149760000000015 524.357553 46.74969599999997 528.907827 51.39967999999999 533.358851 56.04966400000001 535.828941 62.19980799999996 535.828941 68.74931200000003L535.828941 330.09971199999995 657.030482 204.99968C661.531131 200.349696 667.516467 197.799936 673.893737 197.799936 680.225431 197.799936 686.207731 200.349696 690.707366 204.99968 695.209027 209.64966400000003 697.729756 215.79980799999998 697.729756 222.39948800000002 697.729756 228.94899199999998 695.21004 235.09913600000004 690.707366 239.74911999999995L528.864279 406.800384 528.864279 406.800384 528.864279 406.800384ZM908.883507 428.900352C897.111332 339.00032 841.726211 18.750463999999965 830.700431-44.550144000000046L830.355085-46.65036799999996C829.463867-50.45043199999998 822.145756-76.79999999999995 784.760192-76.79999999999995L239.236794-76.79999999999995C202.44875-76.79999999999995 194.68503-50.95014400000002 193.742162-46.999551999999994L193.495052-45.699072C182.468259 17.650687999999946 126.988952 338.151424 115.119554 428.795904 112.449953 449.600512 114.919031 464.601088 122.587553 473.595904 132.131683 484.70016 149.634993 486.4 159.226723 486.4 164.275268 486.4 168.082185 485.950464 170.799386 485.645312 171.490079 485.54496 172.086587 485.450752 172.630433 485.450752L173.076041 485.3504 854.285289 485.695488C854.285289 485.695488 858.536804 486.4 864.768236 486.4 874.360978 486.4 891.869353 484.70016 901.359808 473.59488 909.076941 464.600064 911.554122 449.599488 908.883507 428.900352L908.883507 428.900352 908.883507 428.900352ZM947.152187 508.14976C926.08907 532.5004799999999 895.530435 537.6 873.572047 537.6 873.472799 537.6 863.488123 537.549824 857.749898 536.599552L168.231059 536.399872C165.906804 536.74496 159.283437 537.6 150.427975 537.6 128.47364 537.6 97.912979 532.5004799999999 76.848848 508.14976 59.444787 488.09984 53.061441 460.000256 57.758563 424.705024 71.16126 323.85024 138.065369-55.05024000000003 138.756062-58.80012799999997L138.808726-59.049983999999995C143.803595-82.89996799999994 169.809932-128 232.361253-128L791.635732-128C854.190093-128 880.298716-82.59993599999996 885.295611-58.60044800000003L885.341184-58.200064C888.112061-42.60044800000003 953.089925 325.74976000000004 966.243487 424.705024 970.936556 460.000256 964.559288 488.09984 947.152187 508.14976L947.152187 508.14976 947.152187 508.14976ZM259.217285 601.950208C276.720595 601.950208 282.952029 613.199872 282.952029 622.850048 282.952029 744.344576 385.706378 843.150336 512.000013 843.150336 638.294659 843.150336 741.001408 744.35072 741.001408 622.850048 741.001408 613.199872 747.232842 601.950208 764.787802 601.950208 772.008691 601.950208 790.992637 601.950208 790.992637 626.54976 790.991624 775.100416 665.839357 896 511.998999 896 358.113068 896 232.960799 775.100416 232.960799 626.54976 232.960799 601.950208 251.998422 601.950208 259.164622 601.950208L259.217285 601.950208 259.217285 601.950208Z"  horiz-adv-x="1024" />

    
    <glyph glyph-name="undercarriage" unicode="&#58922;" d="M530.252575 51.34837500000003L692.990925 218.39865899999995C697.51842 223.04551400000003 700.051008 229.197632 700.051008 235.74808299999995 700.051008 242.348708 697.519439 248.49570600000004 692.990925 253.14972899999998 688.468521 257.795561 682.450186 260.349389 676.084605 260.349389 669.672179 260.349389 663.654866 257.795564 659.127368 253.14972899999998L537.259707 128.04915200000005 537.259707 389.399488C537.259707 395.947889 534.773962 402.100006 530.299418 406.745838 525.725079 411.395766 519.760717 413.995671 513.293302 413.995671 506.929756 413.949594 500.916516 411.395766 496.389018 406.745838 491.868652 402.098982 489.328934 395.948913 489.382907 389.399488L489.382907 128.04915200000005 367.414428 253.19683299999997C362.939884 257.849833 356.870636 260.39546900000005 350.505052 260.39546900000005 344.14558 260.39546900000005 338.076332 257.849836 333.600771 253.19683299999997 324.256571 243.64712399999996 324.256571 228.04667099999995 333.600771 218.44678699999997L496.393091 51.347351C496.590648 51.09647600000005 496.793295 50.94697199999996 497.038712 50.70121700000004 497.385964 50.34589200000005 497.787185 50.05098499999997 498.079447 49.69975599999998 498.481687 49.44682999999998 498.775985 49.148851000000036 499.176187 48.94917399999997L499.277002 48.79966999999999C499.478633 48.64709600000003 499.773949 48.452539 500.024458 48.296892999999955 500.372726 48.00403200000005 500.865597 47.74701300000004 501.312645 47.45108000000005 501.562135 47.350728000000004 501.759693 47.203273999999965 501.96234 47.049676999999974 502.45623 46.800846999999976 502.957248 46.553042000000005 503.451139 46.34824400000002 503.648694 46.198743000000036 503.851341 46.10043900000005 504.050936 46.04616699999997 504.592686 45.79529200000002 505.140549 45.646811999999954 505.641567 45.44815900000003 505.889021 45.347808999999984 506.035661 45.299680999999964 506.33505 45.198305000000005 506.82996 45.04675599999996 507.430774 44.850149999999985 508.078433 44.748774000000026 508.227108 44.697577000000024 508.372728 44.647400999999945 508.525478 44.647400999999945 511.704707 43.996144999999956 514.98475 43.996144999999956 518.119171 44.647400999999945L518.565199 44.748774000000026C519.26581 44.851174000000015 519.808579 45.04675599999996 520.354404 45.198305000000005 520.556035 45.300704999999994 520.757663 45.347808999999984 520.956237 45.44815900000003 521.551962 45.647835999999984 522.045852 45.79733999999996 522.54687 46.04616699999997 522.793306 46.10043900000005 522.992899 46.198743000000036 523.242391 46.34824400000002 523.68842 46.59707400000002 524.137503 46.79982299999995 524.637501 47.049676999999974 524.932818 47.151050000000055 525.130373 47.350728000000004 525.333023 47.45108000000005L525.480681 47.49920499999996C525.882921 47.80230700000004 526.226097 48.05113600000004 526.62121 48.29689099999996 526.920599 48.452539 527.168054 48.70239000000004 527.416525 48.84984599999996L527.617137 49.05054700000005C527.915507 49.199025000000006 528.214897 49.448878000000036 528.510213 49.69975599999998 529.108989 50.19843800000001 529.704714 50.75036699999998 530.252575 51.34837500000003L530.252575 51.34837500000003 530.252575 51.34837500000003ZM912.363717 428.904932C900.528681 339.00700400000005 844.837215 18.758943000000045 833.750653-44.54192899999998L833.403402-46.63905799999998C832.506253-50.439076 825.148818-76.78935000000001 787.557153-76.78935000000001L239.027415-76.78935000000001C202.036566-76.78935000000001 194.230046-50.937756000000036 193.28198-46.989261000000056L193.034526-45.689820000000054C181.945927 17.657132000000047 126.161792 338.15709200000003 114.225943 428.80458 111.541624 449.604844 114.025331 464.604214 121.73511 473.604042 131.331855 484.705093 148.932676 486.404913 158.576264 486.404913 163.652641 486.404913 167.480545 485.954358 170.211707 485.654331 170.907227 485.551931 171.506004 485.457723 172.053866 485.457723L172.501932 485.357373 857.467566 485.704504C857.467566 485.704504 861.742518 486.405937 868.008305 486.405937 877.65291 486.405937 895.257805 484.706117 904.801597 473.605066 912.560253 464.604216 915.05109 449.604846 912.363717 428.904932L912.363717 428.904932 912.363717 428.904932ZM950.844383 508.15339C929.664131 532.50689 898.941105 537.6043010000001 876.860649 537.6043010000001 876.758815 537.6043010000001 866.721132 537.556173 860.949238 536.601818L167.629221 536.401116C165.292153 536.750295 158.632273 537.605325 149.727992 537.605325 127.652627 537.605325 96.922473 532.505866 75.743239 508.154414 58.243233 488.104735 51.824697 460.003441 56.547713 424.707607 70.024296 323.85403399999996 137.298253-55.03882799999997 137.992754-58.78867200000002L138.045706-59.03954699999997C143.068111-82.88822300000004 169.217816-127.98873600000002 232.11397-127.98873600000002L794.472632-127.98873600000002C857.368788-127.98873600000002 883.624397-82.59126500000002 888.64884-58.58797100000004L888.694664-58.189640000000054C891.47776-42.58713899999998 956.814853 325.75660300000004 970.040927 424.707607 974.762926 460.002417 968.3505 488.104735 950.844383 508.15339L950.844383 508.15339 950.844383 508.15339ZM259.118053 601.9537379999999C276.717857 601.9537379999999 282.983643 613.203267 282.983643 622.852301 282.983643 744.34742 386.304456 843.148922 513.293302 843.148922 640.285202 843.148922 743.559173 744.350492 743.559173 622.852301 743.559173 613.2053149999999 749.822922 601.9537379999999 767.475676 601.9537379999999 774.73739 601.9537379999999 793.825992 601.9537379999999 793.825992 626.550945 793.825994 775.101867 667.982769 896 513.293302 896 358.559027 896 232.716822 775.101867 232.716822 626.550945 232.716822 601.9537359999999 251.859395 601.9537359999999 259.065101 601.9537359999999L259.118053 601.9537379999999 259.118053 601.9537379999999Z"  horiz-adv-x="1024" />

    
    <glyph glyph-name="ic404" unicode="&#58923;" d="M1935.866 422.796h-9.959c-22.747 158.223-157.327 282.154-318.668 282.154-153.988 0-280.801-107.044-308.71-251.923l-79.667 40.308c-5.476 3.674-14.345 3.674-19.917 0l-79.667-40.308c-27.766 144.88-154.626 251.923-308.71 251.923-161.294 0-295.825-123.983-318.668-282.154h-9.959c-22.67-1.617-39.833-18.941-39.833-40.308s17.164-38.69 39.833-40.308h9.959c22.844-158.223 157.375-282.154 318.668-282.154 178.631 0 321.698 144.354 318.668 322.462 3.029 6.025 2.453 11.88 0 20.154l79.667 40.308 79.667-40.308c-2.405-8.225-2.98-14.129 0-20.154-2.98-178.06 140.085-322.462 318.668-322.462 161.294 0 295.825 123.932 318.668 282.154h9.959c22.67 1.617 39.833 18.941 39.833 40.308 0 21.413-17.164 38.738-39.833 40.308v0 0 0 0 0 0 0zM810.57 110.40999999999997c-148.271 0-268.876 122.042-268.876 272.078s120.606 272.077 268.876 272.077c148.271 0 268.876-122.042 268.876-272.077 0-150.036-120.606-272.078-268.876-272.078v0 0 0 0 0 0 0zM1607.239 110.40999999999997c-148.271 0-268.876 122.052-268.876 272.078 0 150.075 120.606 272.077 268.876 272.077 148.271 0 268.876-122.052 268.876-272.077 0-149.977-120.606-272.078-268.876-272.078v0 0 0 0 0 0zM586.503 382.48800000000006c0-13.913 11.146-25.192 24.896-25.192s24.896 11.279 24.896 25.192c0 91.828 73.566 166.268 164.313 166.268 13.749 0 24.896 11.279 24.896 25.192 0 13.913-11.146 25.193-24.896 25.193-118.248 0-214.105-96.999-214.105-216.653v0 0 0 0 0 0zM1403.093 382.48800000000006c0-13.913 11.147-25.192 24.896-25.192s24.896 11.279 24.896 25.192c0 91.828 73.566 166.268 164.314 166.268 13.749 0 24.896 11.279 24.896 25.192 0 13.913-11.147 25.193-24.896 25.193-118.248 0-214.105-96.999-214.105-216.653v0 0 0 0 0 0z"  horiz-adv-x="2410" />

    
    <glyph glyph-name="ic500" unicode="&#58924;" d="M2081.836 67.20799999999997h-273.38c-28.817 0-52.183 23.01-52.183 51.394v538.474c0 28.381 23.364 51.394 52.183 51.394h273.38c179.843 0 325.563-143.551 325.563-320.631 0-177.117-145.76-320.631-325.563-320.631v0 0 0 0zM2081.836 644.344l-260.45 0.976 1.128-513.983h259.323c143.858 0 260.45 114.816 260.45 256.505 0 141.678-116.583 256.505-260.45 256.505v0 0 0 0zM2407.399 355.77700000000004c-17.979 0-32.557 14.355-32.557 32.063s14.575 32.063 32.557 32.063h131.044c17.979 0 32.557-14.355 32.557-32.063s-14.576-32.063-32.557-32.063h-131.045zM1580.511 605.8679999999999h240.875v-166.728h-240.875c-46.771 0-84.687 37.418-84.687 83.363 0 46.042 37.983 83.363 84.687 83.363v0 0 0zM1580.511 503.266l175.761 0.741 0.072 37.735h-175.835c-10.781 0-19.576-8.651-19.576-19.238 0-10.567 8.801-19.238 19.576-19.238v0 0 0zM1580.511 336.538h240.875v-166.727h-240.875c-46.771 0-84.687 37.418-84.687 83.363 0 46.042 37.983 83.364 84.687 83.364v0 0 0zM1580.511 233.93600000000004h175.761v38.476h-175.761c-10.781 0-19.576-8.651-19.576-19.238 0-10.567 8.801-19.238 19.576-19.238v0 0 0zM1053.058 67.20799999999997c-179.803 0-325.563 143.513-325.563 320.631 0 177.08 145.72 320.631 325.563 320.631l52.09 0.136 65.113-0.136h156.177c28.821 0 52.183-23.013 52.183-51.394v-538.474c0-28.384-23.366-51.394-52.183-51.394l-156.177-0.273-65.113 0.273h-52.09zM1105.149 644.344h-52.09c-143.867 0-260.45-114.827-260.45-256.505 0-141.687 116.593-256.505 260.45-256.505l52.09 0.05v512.957zM606.82 355.77700000000004c-19.753 0-35.766 14.355-35.766 32.063s16.012 32.063 35.766 32.063h136.999c19.753 0 35.766-14.355 35.766-32.063s-16.012-32.063-35.766-32.063h-136.999zM1313.511 131.58500000000004l0.111 512.758h-143.361v-512.895l143.25 0.137zM1274.44 168.64499999999998h-65.113v169.06h65.113v-169.06zM1274.44 437.974h-65.113v169.06h65.113v-169.059z"  horiz-adv-x="3151" />

    
    <glyph glyph-name="icblank" unicode="&#58925;" d="M147.296991 834.80231L710.578571 833.887368C710.578571 833.887368 892.826314 639.668977 892.826314 636.154034L892.826314-48.76320799999996C892.826314-58.14136800000006 885.405263-65.77700000000004 876.203382-65.77700000000004L147.296991-65.77700000000004C138.124435-65.77700000000004 130.674059-58.10228700000005 130.674059-48.73217199999999L130.674059 817.76323C130.674059 827.124149 138.143608 834.808057 147.298119 834.808057L147.296991 834.80231ZM75.445864-48.125275999999985C75.445864-88.93332299999997 107.641728-122.06435799999997 147.298119-122.06435799999997L876.204509-122.06435799999997C915.871051-122.06435799999997 948.056766-88.99539200000004 948.056766-48.156308999999965L948.056766 657.675873 733.499246 891.086218 147.301503 891.086218C107.690224 891.086218 75.449247 857.979322 75.449247 817.147138L75.449247-48.13217199999997 75.445864-48.125275999999985ZM810.672555 407.026448C825.922932 407.026448 838.28609 419.626449 838.28609 435.168976 838.28609 450.711505 825.925187 463.311506 810.672555 463.311506L201.855262 463.311506C186.604886 463.311506 174.241728 450.711505 174.241728 435.168976 174.241728 419.626449 186.604886 407.026448 201.855262 407.026448L810.672555 407.026448 810.672555 407.026448ZM810.672555 238.167827C825.922932 238.167827 838.28609 250.767828 838.28609 266.31035799999995 838.28609 281.852884 825.925187 294.45288500000004 810.672555 294.45288500000004L201.855262 294.45288500000004C186.604886 294.45288500000004 174.241728 281.852884 174.241728 266.31035799999995 174.241728 250.767828 186.604886 238.167827 201.855262 238.167827L810.672555 238.167827 810.672555 238.167827ZM622.834208 69.31035599999996C638.084585 69.31035599999996 650.447743 81.91035699999998 650.447743 97.45288600000003 650.447743 112.99541299999999 638.084585 125.595414 622.834208 125.595414L201.843984 125.595414C186.593608 125.595414 174.23045 112.99541299999999 174.23045 97.45288600000003 174.23045 81.91035699999998 186.593608 69.31035599999996 201.843984 69.31035599999996L622.834208 69.31035599999996 622.834208 69.31035599999996ZM694.001878 609.658632C681.998494 610.968977 673.194736 619.949437 671.909022 632.174724L671.909022 801.033345 616.680825 801.033345 616.680825 632.174724C616.680825 588.154034 650.775938 553.3735730000001 694.000751 553.3735730000001L859.685338 553.3735730000001 859.685338 609.6597810000001 694.000751 609.6597810000001 694.001878 609.658632Z"  horiz-adv-x="1024" />

    
    <glyph glyph-name="fuxuankuang2" unicode="&#58889;" d="M1023.896861 793.494182c0 56.592717-45.876936 102.469653-102.469653 102.469653L102.465634 895.963834c-56.592717 0-102.469653-45.876936-102.469653-102.469653L-0.004018-25.508916c0-56.592717 45.876936-102.469653 102.469653-102.469653l818.961574 0c56.592717 0 102.469653 45.876936 102.469653 102.469653L1023.896861 793.494182zM443.737798 97.47074099999998L168.895437 372.314441l54.333026 54.333026L443.654751 206.21984099999997 840.221683 603.791377l54.416074-54.290163L443.737798 97.47074099999998z"  horiz-adv-x="1025" />

    
    <glyph glyph-name="jichuguanli" unicode="&#58906;" d="M325.563 137.78499999999997l-54.675-54.675c-1.367-1.337-3.606-1.337-5.032 0.058l-56.45 56.478c-1.395 1.397-1.395 3.665-0.058 5.003l54.676 54.675c10.005 10.005 11.866 25.534 4.507 37.577a281.32 281.32 0 0 0-33.27 80.21c-3.315 13.726-15.618 23.382-29.722 23.382h-77.332c-1.89 0-3.489 1.63-3.489 3.605v79.805c0 1.977 1.63 3.605 3.49 3.605h77.33c14.105 0 26.408 9.656 29.723 23.382 6.892 28.386 18.118 55.433 33.27 80.21 7.358 12.1 5.498 27.63-4.507 37.575l-54.676 54.677c-1.367 1.395-1.338 3.605 0.059 5.06l56.45 56.42c1.395 1.395 3.693 1.395 5.031 0.059l54.675-54.675c9.976-10.005 25.506-11.867 37.575-4.48a282.699 282.699 0 0 0 80.21 33.27c13.728 3.316 23.383 15.59 23.383 29.724v77.302c0 1.919 1.599 3.49 3.607 3.49h79.801c1.978 0 3.606-1.63 3.606-3.49v-77.302c0-16.926 13.698-30.594 30.595-30.594s30.595 13.668 30.595 30.594v77.302c0 35.713-29.025 64.68-64.797 64.68h-79.801c-35.772 0-64.797-28.908-64.797-64.68v-54.212c-18.293-5.816-36.033-13.202-53.046-21.984l-38.36 38.33c-25.244 25.242-66.28 25.242-91.552-0.059l-56.45-56.42c-25.272-25.303-25.33-66.309-0.058-91.552l38.36-38.39a338.793 338.793 0 0 1-22.017-53.046h-54.21c-35.684 0-64.68-29.026-64.68-64.797v-79.805c0-35.772 28.937-64.796 64.68-64.796h54.21a343.317 343.317 0 0 1 22.017-53.046l-38.36-38.332c-25.244-25.243-25.215-66.307 0.058-91.552l56.45-56.477c25.302-25.245 66.28-25.303 91.552-0.058l54.704 54.732c11.953 11.924 11.953 31.293 0 43.216-11.952 11.983-31.321 11.983-43.275 0.001zM892.268 488.699h-54.21a338.695 338.695 0 0 1-22.017 53.046l38.36 38.39c25.244 25.243 25.215 66.249-0.059 91.552l-56.45 56.42c-25.301 25.301-66.279 25.36-91.551 0.059l-54.704-54.676c-11.953-11.982-11.953-31.35 0-43.274s31.321-11.924 43.274 0l54.676 54.675c1.367 1.395 3.606 1.337 5.031-0.058l56.45-56.42c1.396-1.397 1.396-3.724 0.058-5.06l-54.675-54.678c-10.005-9.945-11.866-25.475-4.508-37.575 15.152-24.777 26.378-51.825 33.271-80.21 3.315-13.726 15.618-23.382 29.722-23.382h77.331c1.89 0 3.49-1.57 3.49-3.605v-79.805c0-1.977-1.63-3.605-3.49-3.605h-77.331c-14.104 0-26.407-9.656-29.722-23.382a281.291 281.291 0 0 0-33.27-80.21c-7.358-12.043-5.498-27.571 4.507-37.577l54.675-54.675c1.367-1.338 1.339-3.605-0.058-5.003l-56.45-56.478c-1.396-1.394-3.693-1.394-5.031-0.058l-54.676 54.675c-0.61 0.64-1.395 0.816-2.035 1.338-1.658 1.455-3.374 2.502-5.265 3.55-1.658 0.872-3.257 1.686-5.03 2.268-1.92 0.64-3.811 0.93-5.818 1.164-1.92 0.232-3.751 0.348-5.642 0.232-1.979-0.115-3.81-0.581-5.73-1.105-1.948-0.524-3.81-1.105-5.671-2.034-0.756-0.408-1.63-0.408-2.384-0.874a279.316 279.316 0 0 0-80.211-33.27c-13.727-3.316-23.383-15.589-23.383-29.724v-77.36c0-1.86-1.598-3.49-3.606-3.49h-79.801c-1.978 0-3.607 1.63-3.607 3.49v77.36c0 16.868-13.698 30.595-30.594 30.595-16.897 0-30.595-13.727-30.595-30.595v-77.36c0-35.656 29.025-64.68 64.797-64.68h79.801c35.772 0 64.797 28.967 64.797 64.68v54.21c18.292 5.876 36.033 13.205 53.046 22.045l38.36-38.388c25.244-25.245 66.28-25.187 91.552 0.058l56.45 56.477c25.272 25.303 25.33 66.251 0.058 91.552l-38.36 38.332a343.418 343.418 0 0 1 22.017 53.046h54.21c35.684 0 64.68 29.025 64.68 64.796v79.805c0 35.772-28.937 64.796-64.679 64.796zM669.263 384.118c0 87.829-71.253 159.082-159.11 159.082-87.86 0-159.111-71.254-159.111-159.082 0-87.889 71.251-159.14 159.11-159.14 87.858 0 159.111 71.25 159.111 159.14z m-257.033 0c0 54.035 43.856 97.892 97.921 97.892 54.065 0 97.92-43.857 97.92-97.892 0-54.096-43.855-97.952-97.92-97.952-54.065-0.001-97.92 43.856-97.92 97.952z"  horiz-adv-x="1024" />

    
    <glyph glyph-name="danxuanweixuanzhong" unicode="&#58926;" d="M513.640508-127.99731999999995c-282.768113-0.905527-512.730745 227.589197-513.635213 510.357309C-0.901291 665.128102 227.593434 895.090734 510.362605 895.996261c282.768113 0.905527 512.730745-227.590256 513.635213-510.35731l0.003178-1.636303c0.453293-282.317997-228.043549-511.547734-510.360488-511.999968z m1.587586 921.599095c-226.215549 0-409.600186-183.383578-409.600187-409.600186s183.384637-409.600186 409.600187-409.600187S924.827221 157.78603899999996 924.827221 384.001589 741.443643 793.601775 515.228094 793.601775z"  horiz-adv-x="1031" />

    
    <glyph glyph-name="tianjia" unicode="&#58898;" d="M477.892271 418.107737H34.107745a34.107737 34.107737 0 0 1 0-68.215474h443.784526v-443.784526a34.107737 34.107737 0 0 1 68.215474 0V349.89226299999996h443.784526a34.107737 34.107737 0 0 1 0 68.215474H546.107745V861.892263a34.107737 34.107737 0 0 1-68.215474 0v-443.784526z"  horiz-adv-x="1024" />

    
    <glyph glyph-name="cuowutishi" unicode="&#58938;" d="M878.0032-104.72727299999997h-726.109091c-60.509091 0-107.054545 23.272727-134.981818 65.163637-23.272727 41.890909-23.272727 97.745455 4.654545 148.945454l372.363637 656.290909C421.857745 816.8727269999999 463.748655 849.454545 514.948655 849.454545s93.090909-27.927273 121.018181-83.781818l367.709091-656.290909c27.927273-51.2 32.581818-107.054545 4.654546-148.945454-23.272727-41.890909-69.818182-65.163636-130.327273-65.163637zM514.948655 788.945455c-27.927273 0-51.2-18.618182-69.818182-51.2l-367.709091-656.29091c-18.618182-32.581818-18.618182-65.163636-4.654546-88.436363s41.890909-37.236364 83.781819-37.236364H882.657745c37.236364 0 65.163636 13.963636 83.781819 37.236364 13.963636 23.272727 9.309091 55.854545-4.654546 88.436363l-377.018182 656.29091c-18.618182 32.581818-41.890909 51.2-69.818181 51.2zM547.530473 100.07272699999999c0-18.618182-13.963636-32.581818-32.581818-32.581818s-32.581818 13.963636-32.581819 32.581818v307.2c0 18.618182 13.963636 32.581818 32.581819 32.581818 18.618182 0 32.581818-13.963636 32.581818-32.581818v-307.2zM463.748655 565.5272729999999c0 9.309091 4.654545 23.272727 13.963636 32.581818s23.272727 13.963636 37.236364 13.963636 27.927273-4.654545 37.236363-13.963636c9.309091-9.309091 13.963636-23.272727 13.963637-32.581818v-9.309091c0-9.309091-4.654545-23.272727-13.963637-32.581818-9.309091-9.309091-23.272727-13.963636-37.236363-13.963637s-27.927273 4.654545-37.236364 13.963637c-9.309091 9.309091-13.963636 18.618182-13.963636 32.581818v9.309091c0-4.654545 0 0 0 0z"  horiz-adv-x="1027" />

    
    <glyph glyph-name="shangpinguanli" unicode="&#58904;" d="M800 624H224c-62.4 0-112-49.6-112-112v-464c0-62.4 49.6-112 112-112h576c62.4 0 112 49.6 112 112V512c0 62.4-49.6 112-112 112z m64-576c0-35.2-28.8-64-64-64H224c-35.2 0-64 28.8-64 64V512c0 35.2 28.8 64 64 64h576c35.2 0 64-28.8 64-64v-464zM736 504V640c0 115.2-97.6 204.8-224 204.8S288 755.2 288 640v-136c-9.6-8-16-19.2-16-32 0-22.4 17.6-40 40-40s40 17.6 40 40c0 12.8-6.4 24-16 32V640c0 91.2 81.6 156.8 176 156.8s176-65.6 176-156.8v-136c-9.6-8-16-19.2-16-32 0-22.4 17.6-40 40-40s40 17.6 40 40c0 12.8-6.4 24-16 32z"  horiz-adv-x="1024" />

    
    <glyph glyph-name="fuxuankuang" unicode="&#58888;" d="M877.62432 834.00192H146.37568c-46.59712 0-84.37248-37.77536-84.37248-84.37248V18.380800000000022c0-46.59712 37.77536-84.37248 84.37248-84.37248h731.24864c46.59712 0 84.37248 37.78048 84.37248 84.37248V749.62432c0.00512 46.59712-37.77024 84.3776-84.37248 84.3776z m28.12416-815.62624a28.16 28.16 0 0 0-28.12416-28.12416H146.37568a28.16 28.16 0 0 0-28.12416 28.12416V749.62432a28.15488 28.15488 0 0 0 28.12416 28.12416h731.24864a28.16 28.16 0 0 0 28.12416-28.12416v-731.24864z"  horiz-adv-x="1024" />

    
    <glyph glyph-name="ic_add" unicode="&#58918;" d="M873.871975 22.350854000000027a511.832695 511.832695 0 1 0 0 723.603472 511.832695 511.832695 0 0 0 0-723.603472zM195.693655 700.529175A447.853608 447.853608 0 1 1 832.285569 703.728129a447.853608 447.853608 0 0 1-633.39296 0zM544.379678 415.822238h191.937261a31.989543 31.989543 0 0 0 0-63.979087h-191.937261v-191.93726a31.989543 31.989543 0 1 0-63.979087 0v191.93726h-191.93726a31.989543 31.989543 0 0 0 0 63.979087h191.93726v191.937261a31.989543 31.989543 0 1 0 63.979087 0v-191.937261z"  horiz-adv-x="1024" />

    
    <glyph glyph-name="lock" unicode="&#58895;" d="M782.628571 464.457143h-7.314285V559.542857C775.314286 764.342857 658.285714 896 475.428571 896S175.542857 764.342857 175.542857 559.542857v-95.085714h-7.314286c-51.2 0-95.085714-51.2-95.085714-109.714286v-380.342857c0-51.2 43.885714-102.4 95.085714-102.4h621.714286c51.2 0 95.085714 51.2 95.085714 109.714286V354.74285699999996c-7.314286 58.514286-51.2 109.714286-102.4 109.714286z m-256-380.342857c0-29.257143-21.942857-51.2-51.2-51.2s-51.2 21.942857-51.2 51.2V252.34285699999998c0 29.257143 21.942857 51.2 51.2 51.2s51.2-21.942857 51.2-51.2v-168.228571z m153.6 380.342857H277.942857V559.542857c0 138.971429 73.142857 226.742857 204.8 226.742857s204.8-87.771429 204.8-226.742857v-95.085714z"  horiz-adv-x="1024" />

    
    <glyph glyph-name="shuaxin" unicode="&#58914;" d="M512-72.12800000000004c13.44 0 99.84 0.64 112.896 1.792C848.64-49.66399999999999 1024 144.06399999999996 1024 379.904 1024 629.568 827.52 832 585.152 832 342.784 832 146.304 629.568 146.304 379.904h73.152c0 208.064 163.712 376.768 365.696 376.768 201.984 0 365.696-168.704 365.696-376.768 0-195.52-144.64-356.288-329.728-374.912-11.84-1.216-97.024-1.792-109.12-1.792a37.12 37.12 0 0 1-36.608-37.696 37.12 37.12 0 0 1 36.608-37.632zM0 379.904h365.696l-182.848-226.048L0 379.904z"  horiz-adv-x="1024" />

    
    <glyph glyph-name="danxuanxuanzhong" unicode="&#58927;" d="M512 888.32C232.76544 888.32 6.4 661.95456 6.4 382.72S232.76544-122.88 512-122.88s505.6 226.36544 505.6 505.6S791.23456 888.32 512 888.32z m0-971.072c-257.07264 0-465.472 208.39936-465.472 465.472S254.92736 848.192 512 848.192 977.472 639.79264 977.472 382.72 769.07264-82.75199999999995 512-82.75199999999995z m0 706.23488c-132.96896 0-240.76288-107.79392-240.76288-240.76288s107.79392-240.76288 240.76288-240.76288 240.76288 107.79392 240.76288 240.76288-107.79392 240.76288-240.76288 240.76288z"  horiz-adv-x="1024" />

    
    <glyph glyph-name="close" unicode="&#58892;" d="M512 896C230.4 896 0 665.6 0 384s230.4-512 512-512 512 230.4 512 512S793.6 896 512 896z m252.8-713.6c12.8-12.8 12.8-38.4 0-51.2-6.4-6.4-16-9.6-25.6-9.6s-19.2 3.2-25.6 9.6L512 332.79999999999995l-201.6-201.6c-6.4-6.4-16-9.6-25.6-9.6s-19.2 3.2-25.6 9.6c-12.8 12.8-12.8 38.4 0 51.2l201.6 201.6-201.6 201.6c-12.8 12.8-12.8 38.4 0 51.2 12.8 12.8 38.4 12.8 51.2 0l201.6-201.6 201.6 201.6c12.8 12.8 38.4 12.8 51.2 0 12.8-12.8 12.8-38.4 0-51.2L563.2 384l201.6-201.6z"  horiz-adv-x="1024" />

    
    <glyph glyph-name="guanbi" unicode="&#58900;" d="M577.2 386.2l366.1 366.1c18.3 18.3 18.3 47.9 0 66.2-18.3 18.3-47.9 18.3-66.2 0L511 452.3 144.9 818.4c-18.3 18.3-47.9 18.3-66.2 0-18.3-18.3-18.3-47.9 0-66.2l366.1-366.1-366.1-366c-18.3-18.3-18.3-47.9 0-66.2 18.3-18.3 47.9-18.3 66.2 0L511 320l366.1-366.1c18.3-18.3 47.9-18.3 66.2 0 18.3 18.3 18.3 47.9 0 66.2L577.2 386.2z"  horiz-adv-x="1024" />

    
    <glyph glyph-name="rili" unicode="&#58915;" d="M398.222 721.455h341.334V806.788H398.222v-85.333z m512 0h85.574c23.187 0 42.426-19.83 42.426-45.14v-659.62c0-25.187-19.434-45.14-42.878-45.14h-852.91c-23.49 0-42.878 19.879-42.878 45.14v659.62c0 25.298 19.31 45.14 43.007 45.14h86.94V806.788h-86.94c-71.351 0-128.34-58.558-128.34-130.473v-659.62c0-71.92 57.11-130.473 128.21-130.473h852.911c71.082 0 128.212 58.653 128.212 130.473v659.62c0 71.871-56.858 130.473-127.76 130.473h-85.574v-85.333z m-640 132.135C270.222 877.012 289.16 896 312.89 896c23.564 0 42.667-18.984 42.667-42.41v-179.144c0-23.423-18.939-42.41-42.667-42.41-23.564 0-42.667 18.983-42.667 42.41V853.59z m512 0.033C782.222 877.027 801.16 896 824.89 896c23.564 0 42.667-18.969 42.667-42.377V674.62c0-23.405-18.939-42.378-42.667-42.378-23.564 0-42.667 18.97-42.667 42.378V853.623z m-512-395.926c0 23.564 19.198 42.667 42.959 42.667h511.416c23.725 0 42.959-18.939 42.959-42.667 0-23.564-19.198-42.667-42.96-42.667H313.182c-23.725 0-42.959 18.939-42.959 42.667z m0-219.798c0 23.564 19.198 42.667 42.959 42.667h511.416c23.725 0 42.959-18.939 42.959-42.667 0-23.564-19.198-42.667-42.96-42.667H313.182c-23.725 0-42.959 18.939-42.959 42.667z"  horiz-adv-x="1138" />

    
    <glyph glyph-name="next_" unicode="&#58884;" d="M832 384L192 896v-1024z"  horiz-adv-x="1024" />

    


  </font>
</defs>
</svg>
